<svg xmlns="http://www.w3.org/2000/svg" viewBox="0 0 32 32" width="32" height="32">
  <rect width="32" height="32" rx="6" fill="#0D0D0D"/>
  <path d="M16 28 C9 28 5 22 5 17 C5 12 9 8 12 5 C12 10 14 12 16 13 C14 10 15 5 16 2 C17 7 20 10 21 13 C22 10 22 6 20 3 C25 7 27 13 27 18 C27 23 23 27 19 29 C20 26 18 23 16 22 C17 25 17 27 16 28Z" 
        fill="#E8322C"/>
  <path d="M16 26 C12 26 9 22 9 18 C9 15 11 13 13 12 C13 15 14 16 15 17 C14 15 15 12 16 10 C16 13 18 14 19 16 C19 13 19 11 18 9 C21 11 23 15 23 19 C23 22 21 25 18 27 C18 25 17 23 16 22 C16 24 16 26 16 26Z" 
        fill="#FF6B55" opacity="0.8"/>
</svg>
